<svg version="1.1" id="Layer_1" xmlns="http://www.w3.org/2000/svg" xmlns:xlink="http://www.w3.org/1999/xlink" x="0px" y="0px"
	 width="100%" viewBox="0 0 853 853" enable-background="new 0 0 853 853" xml:space="preserve">
<path fill="#000000" opacity="1.000000" stroke="none" 
	d="
M535.000000,854.000000 
	C356.666718,854.000000 178.833435,854.000000 1.000119,854.000000 
	C1.000080,569.666809 1.000080,285.333618 1.000040,1.000310 
	C285.333099,1.000207 569.666199,1.000207 853.999512,1.000103 
	C853.999634,285.333038 853.999634,569.666077 853.999817,853.999512 
	C747.833313,854.000000 641.666687,854.000000 535.000000,854.000000 
M590.000000,493.500000 
	C590.000000,549.926636 590.000000,606.353210 590.000000,662.710938 
	C608.644714,662.710938 626.716492,662.710938 644.714355,662.710938 
	C644.714355,529.688416 644.714355,396.955048 644.714355,264.289001 
	C626.355408,264.289001 608.283569,264.289001 590.000000,264.289001 
	C590.000000,340.551880 590.000000,416.525940 590.000000,493.500000 
M211.000000,655.478882 
	C211.000565,662.999878 211.000565,662.999939 218.525803,663.000000 
	C227.689621,663.000061 236.853455,663.000000 246.017273,663.000000 
	C252.280441,663.000000 258.543610,663.000000 264.746277,663.000000 
	C264.746277,529.704468 264.746277,396.995056 264.746277,264.824585 
	C246.679092,264.824585 228.872757,264.824585 209.937592,264.824585 
	C210.692963,395.277313 208.681564,524.905151 211.000000,655.478882 
M463.000000,293.500000 
	C463.000000,392.590576 463.000000,491.681122 463.000000,590.714783 
	C481.970490,590.714783 500.375488,590.714783 518.717896,590.714783 
	C518.717896,481.695801 518.717896,372.962311 518.717896,264.285217 
	C500.029541,264.285217 481.624542,264.285217 463.000000,264.285217 
	C463.000000,273.879181 463.000000,283.189606 463.000000,293.500000 
M392.000000,474.500000 
	C392.000000,404.420166 392.000000,334.340332 392.000000,264.855347 
	C373.334473,264.855347 355.205627,264.855347 336.000000,264.855347 
	C336.000000,312.445770 335.873322,359.180084 336.031708,405.913452 
	C336.234192,465.647919 336.701263,525.381470 336.918427,585.115906 
	C336.932220,588.904297 338.472290,589.940186 341.783325,590.020996 
	C353.199432,590.299622 364.612274,590.713440 376.028625,590.979126 
	C381.287262,591.101624 386.551086,591.000000 392.000000,591.000000 
	C392.000000,552.104004 392.000000,513.802002 392.000000,474.500000 
M479.507599,248.000000 
	C534.595520,248.000000 589.683411,248.000000 645.000000,248.000000 
	C645.000000,231.964386 645.002136,216.490631 644.999084,201.016891 
	C644.997620,193.857574 643.175171,192.001648 636.127869,192.001343 
	C579.971008,191.998962 523.814148,192.000000 467.657318,192.000000 
	C466.211487,192.000000 464.765686,192.000000 463.000427,192.000000 
	C463.000427,209.757935 463.042877,227.051788 462.960236,244.345047 
	C462.945831,247.361191 464.867249,247.863693 467.015656,247.953491 
	C470.841675,248.113342 474.679108,247.999420 479.507599,248.000000 
M211.000000,238.466309 
	C211.000000,241.573715 211.000000,244.681122 211.000000,247.724121 
	C271.622406,247.724121 331.690796,247.724121 391.721344,247.724121 
	C391.721344,229.042297 391.721344,210.637650 391.721344,192.277740 
	C331.373871,192.277740 271.305481,192.277740 211.000000,192.277740 
	C211.000000,207.528534 211.000000,222.502731 211.000000,238.466309 
M401.500000,663.000000 
	C440.579803,663.000000 479.659607,663.000000 518.153076,663.000000 
	C518.153076,644.332336 518.153076,626.207764 518.153076,608.284851 
	C456.905090,608.284851 396.504272,608.284851 336.493286,608.284851 
	C337.172119,626.641479 337.840912,644.726135 338.516693,663.000000 
	C359.230042,663.000000 379.865021,663.000000 401.500000,663.000000 
z"/>
<path fill="#FFFFFF" opacity="1.000000" stroke="none" 
	d="
M590.000000,493.000000 
	C590.000000,416.525940 590.000000,340.551880 590.000000,264.289001 
	C608.283569,264.289001 626.355408,264.289001 644.714355,264.289001 
	C644.714355,396.955048 644.714355,529.688416 644.714355,662.710938 
	C626.716492,662.710938 608.644714,662.710938 590.000000,662.710938 
	C590.000000,606.353210 590.000000,549.926636 590.000000,493.000000 
z"/>
<path fill="#FFFFFF" opacity="1.000000" stroke="none" 
	d="
M211.000000,655.006348 
	C208.681564,524.905151 210.692963,395.277313 209.937592,264.824585 
	C228.872757,264.824585 246.679092,264.824585 264.746277,264.824585 
	C264.746277,396.995056 264.746277,529.704468 264.746277,663.000000 
	C258.543610,663.000000 252.280441,663.000000 246.017273,663.000000 
	C236.853455,663.000000 227.689621,663.000061 218.525803,663.000000 
	C211.000565,662.999939 211.000565,662.999878 211.000000,655.006348 
z"/>
<path fill="#FFFFFF" opacity="1.000000" stroke="none" 
	d="
M463.000000,293.000000 
	C463.000000,283.189606 463.000000,273.879181 463.000000,264.285217 
	C481.624542,264.285217 500.029541,264.285217 518.717896,264.285217 
	C518.717896,372.962311 518.717896,481.695801 518.717896,590.714783 
	C500.375488,590.714783 481.970490,590.714783 463.000000,590.714783 
	C463.000000,491.681122 463.000000,392.590576 463.000000,293.000000 
z"/>
<path fill="#FFFFFF" opacity="1.000000" stroke="none" 
	d="
M392.000000,475.000000 
	C392.000000,513.802002 392.000000,552.104004 392.000000,591.000000 
	C386.551086,591.000000 381.287262,591.101624 376.028625,590.979126 
	C364.612274,590.713440 353.199432,590.299622 341.783325,590.020996 
	C338.472290,589.940186 336.932220,588.904297 336.918427,585.115906 
	C336.701263,525.381470 336.234192,465.647919 336.031708,405.913452 
	C335.873322,359.180084 336.000000,312.445770 336.000000,264.855347 
	C355.205627,264.855347 373.334473,264.855347 392.000000,264.855347 
	C392.000000,334.340332 392.000000,404.420166 392.000000,475.000000 
z"/>
<path fill="#FFFFFF" opacity="1.000000" stroke="none" 
	d="
M479.009705,248.000000 
	C474.679108,247.999420 470.841675,248.113342 467.015656,247.953491 
	C464.867249,247.863693 462.945831,247.361191 462.960236,244.345047 
	C463.042877,227.051788 463.000427,209.757935 463.000427,192.000000 
	C464.765686,192.000000 466.211487,192.000000 467.657318,192.000000 
	C523.814148,192.000000 579.971008,191.998962 636.127869,192.001343 
	C643.175171,192.001648 644.997620,193.857574 644.999084,201.016891 
	C645.002136,216.490631 645.000000,231.964386 645.000000,248.000000 
	C589.683411,248.000000 534.595520,248.000000 479.009705,248.000000 
z"/>
<path fill="#FFFFFF" opacity="1.000000" stroke="none" 
	d="
M211.000000,237.971619 
	C211.000000,222.502731 211.000000,207.528534 211.000000,192.277740 
	C271.305481,192.277740 331.373871,192.277740 391.721344,192.277740 
	C391.721344,210.637650 391.721344,229.042297 391.721344,247.724121 
	C331.690796,247.724121 271.622406,247.724121 211.000000,247.724121 
	C211.000000,244.681122 211.000000,241.573715 211.000000,237.971619 
z"/>
<path fill="#FFFFFF" opacity="1.000000" stroke="none" 
	d="
M401.000000,663.000000 
	C379.865021,663.000000 359.230042,663.000000 338.516693,663.000000 
	C337.840912,644.726135 337.172119,626.641479 336.493286,608.284851 
	C396.504272,608.284851 456.905090,608.284851 518.153076,608.284851 
	C518.153076,626.207764 518.153076,644.332336 518.153076,663.000000 
	C479.659607,663.000000 440.579803,663.000000 401.000000,663.000000 
z"/>
</svg>